<svg width="52" height="52" viewBox="0 0 52 52" fill="none" xmlns="http://www.w3.org/2000/svg">
<path fill-rule="evenodd" clip-rule="evenodd" d="M44.15 2H2V50H44.15V2ZM0 0V52H46.15V0H0Z" fill="#5B5B5B"/>
<path d="M7.52023 5.1849C7.67477 3.7573 8.95735 2.72529 10.3849 2.87983L49.1584 7.07717C50.586 7.23171 51.618 8.51429 51.4635 9.94189L49.3648 29.3286C49.2103 30.7562 47.9277 31.7882 46.5001 31.6337L7.72663 27.4364C6.29903 27.2818 5.26701 25.9992 5.42155 24.5716L7.52023 5.1849Z" fill="#3CD0FF"/>
<path d="M13.7508 38.2223L12.2502 27.926L20.0049 28.7655C15.7918 31.4476 14.0801 36.1876 13.7508 38.2223Z" fill="#3CD0FF"/>
</svg>
